# xmcd
#
# Track frame offsets:
# 150
# 15929
# 31880
# 44976
# 61662
# 75697
# 90130
# 106304
# 121150
# 138004
# 154481
# 166730
# 182983
# 195669
# 213116
# 225624
# 238937
# 252517
# 265655
# 279316
#
# Disc length: 3918 seconds
#
#
# Revision: 0
# Processed by: cddbd v1.4PL0 Copyright (c) Steve Scherf et al.
# Submitted via: FreeRIP 2.11 
#
DISCID=010f4c14
DTITLE=Various Artist - Grandes Corridos Mexicanos Disco1
DYEAR=1900
DGENRE=Latin
TTITLE0=Juan Charrasqueado - Jorge Negrete
TTITLE1=El Corrido de Chihuahua - Lucha Reyes
TTITLE2=El Hijo Desobediente - Trío Calaveras
TTITLE3=Valetntín de la Sierra - Dueto Miseria
TTITLE4=El Cantador - Miguel Aceves Mejía
TTITLE5=Simón Blanco - Fedrnando Rosasd
TTITLE6=Corrido de Santa Amalia - FRancisco "Charro" Avitia
TTITLE7=Los Dos Hermanos - Juan Mendoza "El Tariacuri"
TTITLE8=Valente Quintero - Dueto Caleta
TTITLE9=La Tumba de Villa - Las Lupes
TTITLE10=Corrido de Panfilo Natera - Martín y Malena
TTITLE11=Felipe Angeles - Dueto Los Conejos
TTITLE12=Francisco Villa - Miguel Aceves Mejía
TTITLE13=Benito Canales - Dueto Los Pajaros
TTITLE14=Gabino Barrera - Dueto Miseria
TTITLE15=Tampico Hermoso - Los Dos Reales
TTITLE16=El Caballo Blanco - José ASlfredo Jímenez
TTITLE17=Eñ Tío Juan - Gilberto Valenzuela
TTITLE18=Lucio Vazquez - Miguel Aceves Mejía
TTITLE19=Rosita Alvírez - Trío Calaveras
EXTD=
EXTT0=
EXTT1=
EXTT2=
EXTT3=
EXTT4=
EXTT5=
EXTT6=
EXTT7=
EXTT8=
EXTT9=
EXTT10=
EXTT11=
EXTT12=
EXTT13=
EXTT14=
EXTT15=
EXTT16=
EXTT17=
EXTT18=
EXTT19=
PLAYORDER=
